<?xml version="1.0" encoding="UTF-8"?>
<svg width="52px" height="42px" viewBox="0 0 52 42" version="1.1" xmlns="http://www.w3.org/2000/svg" xmlns:xlink="http://www.w3.org/1999/xlink" xmlns:sketch="http://www.bohemiancoding.com/sketch/ns">
    <!-- Generator: Sketch 3.3.3 (12081) - http://www.bohemiancoding.com/sketch -->
    <title>back</title>
    <desc>Created with Sketch.</desc>
    <defs></defs>
    <g id="Page-1" stroke="none" stroke-width="1" fill="none" fill-rule="evenodd" sketch:type="MSPage">
        <g id="back" sketch:type="MSLayerGroup" transform="translate(0.000000, -1.000000)" fill="#FFFFFF">
            <path d="M20.3,42.4 C20.7,42.8 21.2,43 21.7,43 C22.2,43 22.7,42.8 23.1,42.4 C23.9,41.6 23.9,40.4 23.1,39.6 L7.6,24 L49.3,24 C50.4,24 51.3,23.1 51.3,22 C51.3,20.9 50.4,20 49.3,20 L7.6,20 L23.2,4.4 C24,3.6 24,2.4 23.2,1.6 C22.4,0.8 21.2,0.8 20.4,1.6 L1.4,20.6 C0.6,21.4 0.6,22.6 1.4,23.4 L20.3,42.4 L20.3,42.4 Z" id="Shape" sketch:type="MSShapeGroup"></path>
        </g>
    </g>
</svg>